# xmcd
#
# Track frame offsets:
#	150
#	34575
#	48037
#	73537
#	83437
#	104437
#	115462
#	127087
#	139537
#	145499
#
# Disc length: 2113 seconds
#
# Revision: 0
# Processed by: cddbd v1.5.2PL0 Copyright (c) Steve Scherf et al.
# Submitted via: dBpowerAMP V4.0
#
DISCID=87083f0a
DTITLE=Bob Meyer - All this is that
DYEAR=2005
DGENRE=Blues
TTITLE0=Bob Meyer - River
TTITLE1=Bob Meyer - I want more
TTITLE2=Bob Meyer - World of beauty
TTITLE3=Bob Meyer - Good girl
TTITLE4=Bob Meyer - Showmaker levy no. 9
TTITLE5=Bob Meyer - Table and others
TTITLE6=Bob Meyer - Deluge
TTITLE7=Bob Meyer - Get to get
TTITLE8=Bob Meyer - Rolling
TTITLE9=Bob Meyer - Rolling part 2
EXTD=
EXTT0=
EXTT1=
EXTT2=
EXTT3=
EXTT4=
EXTT5=
EXTT6=
EXTT7=
EXTT8=
EXTT9=
PLAYORDER=
